<svg width="128" height="128" viewBox="0 0 128 128" fill="none" xmlns="http://www.w3.org/2000/svg">
  <path
    d="M121.924 66.8999C121.974 67.8935 122 68.8937 122 69.8999C122 101.932 96.0325 127.9 64 127.9C31.9675 127.9 6 101.932 6 69.8999C6 68.8937 6.02457 67.8935 6.0752 66.8999C7.63626 97.5382 32.9737 121.9 64 121.9C95.0263 121.9 120.363 97.5382 121.924 66.8999Z"
    fill="black" fill-opacity="0.333333" />
  <circle cx="64" cy="64" r="58" fill="#B06ED8" />
  <path
    d="M64 6C96.0325 6 122 31.9675 122 64C122 65.0062 121.974 66.0064 121.924 67C120.363 36.3617 95.0263 12 64 12C32.9737 12 7.63626 36.3617 6.0752 67C6.02457 66.0064 6 65.0062 6 64C6 31.9675 31.9675 6 64 6Z"
    fill="white" fill-opacity="0.333333" />
  <path
    d="M22.6201 65.042C22.7912 70.2647 23.8834 75.2038 25.9014 79.8594C28.1062 84.9461 31.092 89.3733 34.8594 93.1406C38.6267 96.908 43.0539 99.8938 48.1406 102.099C53.2274 104.303 58.6531 105.406 64.417 105.406C73.3056 105.406 81.3349 102.863 88.5049 97.7764C95.6503 92.7071 100.717 86.0076 103.707 77.6797C104.092 78.5831 104.103 79.5542 103.739 80.5938C100.753 88.9618 95.675 95.6896 88.5049 100.776C81.3349 105.863 73.3056 108.406 64.417 108.406C58.6531 108.406 53.2274 107.303 48.1406 105.099C43.0539 102.894 38.6267 99.908 34.8594 96.1406C31.092 92.3733 28.1062 87.9461 25.9014 82.8594C23.6965 77.7726 22.5938 72.3469 22.5938 66.583C22.5938 66.0665 22.6029 65.5528 22.6201 65.042Z"
    fill="black" fill-opacity="0.333333" />
  <path
    d="M64.4167 105.406C58.6528 105.406 53.2274 104.304 48.1406 102.099C43.0538 99.8941 38.6267 96.908 34.8594 93.1406C31.092 89.3733 28.1059 84.9462 25.901 79.8594C23.6962 74.7726 22.5938 69.3472 22.5938 63.5833C22.5938 54.7986 25.0764 46.8386 30.0417 39.7031C35.0069 32.5677 41.6389 27.4896 49.9375 24.4688C51.3958 23.9132 52.75 24.0695 54 24.9375C55.25 25.8056 55.8403 26.9861 55.7708 28.4792C55.5972 34.4167 56.5608 40.0938 58.6615 45.5104C60.7622 50.9271 63.9132 55.7361 68.1146 59.9375C72.2812 64.1042 77.0816 67.2379 82.5156 69.3386C87.9497 71.4393 93.6181 72.3854 99.5208 72.1771C101.118 72.1077 102.342 72.6459 103.193 73.7917C104.043 74.9375 104.226 76.2049 103.74 77.5938C100.753 85.9618 95.6753 92.6893 88.5052 97.7761C81.3351 102.863 73.3056 105.406 64.4167 105.406Z"
    fill="white" />
</svg>